# File created by Blade
# Date/Time:  Fri Jan 16 17:45:28 2015
# Frame Rate: 120.000 fps
#------------------------------------------------------
:FULLY-SPECIFIED
:DEGREES
4167
root -5.448464 35.221021 -9.449929 -0.965300 -2.230580 -5.616551
Spine -3.540837 -1.944683 9.660987
Head 3.262408 6.002123 -6.616379
LeftShoulder -23.983077 16.708880 0.313522
LeftArm 27.632440 -54.164309 -34.034127
LeftForeArm 17.415906 -0.000000 6.425919
LeftHand -3.175305 -0.000000 -6.659797
LeftHandThumb1 -26.253704 0.000000 33.147579
RightShoulder -8.859146 10.681313 -17.701612
RightArm -0.538371 14.256124 17.679381
RightForeArm -35.215771 -0.000000 15.040185
RightHand -1.817010 -0.000000 16.467821
RightHandThumb1 -24.326973 -0.000000 -32.862282
LeftUpLeg 11.026758 12.035960 6.764405
LeftLeg -9.127510 -0.000000 0.000000
LeftFoot -15.757139 26.897064 -8.740641
LeftToeBase 22.808410 -0.000000 -0.000000
RightUpLeg 8.359017 -5.405142 4.035805
RightLeg -4.132979 -0.000000 0.000000
RightFoot -5.933366 -29.504414 4.623785
RightToeBase 13.898996 -0.000000 -0.000000
4168
root -5.441223 35.220636 -9.442967 -0.950366 -2.261992 -5.616106
Spine -3.556012 -1.924900 9.679541
Head 3.246805 6.012701 -6.685815
LeftShoulder -24.065396 16.622460 0.488707
LeftArm 27.489852 -54.378771 -33.699206
LeftForeArm 17.515344 0.000000 6.467908
LeftHand -3.339101 0.000000 -6.527906
LeftHandThumb1 -26.253704 0.000000 33.147579
RightShoulder -8.941473 10.854574 -17.927421
RightArm -0.600187 14.322355 17.321352
RightForeArm -35.289278 -0.000000 15.148721
RightHand -1.827273 -0.000000 16.354302
RightHandThumb1 -24.326973 -0.000000 -32.862282
LeftUpLeg 11.029018 12.045800 6.751335
LeftLeg -9.120523 -0.000000 0.000000
LeftFoot -15.785704 26.908977 -8.759097
LeftToeBase 22.810895 -0.000000 -0.000000
RightUpLeg 8.354511 -5.380560 4.024282
RightLeg -4.136652 -0.000000 0.000000
RightFoot -5.936065 -29.501849 4.627400
RightToeBase 13.904781 -0.000000 -0.000000
4169
root -5.430168 35.219961 -9.433952 -0.930322 -2.348712 -5.628164
Spine -3.583507 -1.862203 9.735023
Head 3.266710 6.043509 -6.788492
LeftShoulder -24.157558 16.539335 0.630709
LeftArm 27.313416 -54.570786 -33.305288
LeftForeArm 17.545717 -0.000000 6.464774
LeftHand -3.367860 -0.000000 -6.482474
LeftHandThumb1 -26.253704 0.000000 33.147579
RightShoulder -8.989469 10.947608 -18.160163
RightArm -0.610120 14.634755 16.997924
RightForeArm -35.676943 0.000000 15.146999
RightHand -1.938356 -0.000000 16.369565
RightHandThumb1 -24.326973 -0.000000 -32.862282
LeftUpLeg 11.056502 12.122018 6.747344
LeftLeg -9.141171 -0.000000 0.000000
LeftFoot -15.801296 26.921287 -8.746781
LeftToeBase 22.799471 -0.000000 -0.000000
RightUpLeg 8.335219 -5.305332 4.019336
RightLeg -4.120047 -0.000000 0.000000
RightFoot -5.928371 -29.495620 4.640154
RightToeBase 13.877300 -0.000000 -0.000000
4170
root -5.425454 35.219428 -9.427882 -0.910253 -2.335311 -5.608045
Spine -3.613842 -1.874700 9.707120
Head 3.245344 6.053234 -6.814085
LeftShoulder -24.231922 16.469317 0.805725
LeftArm 27.203265 -54.834736 -33.000120
LeftForeArm 17.663953 -0.000000 6.520861
LeftHand -3.418123 -0.000000 -6.344064
LeftHandThumb1 -26.253704 0.000000 33.147579
RightShoulder -9.067402 11.084965 -18.346821
RightArm -0.687598 14.948433 16.653335
RightForeArm -35.939431 -0.000000 15.288329
RightHand -2.026799 -0.000000 16.501777
RightHandThumb1 -24.326973 -0.000000 -32.862282
LeftUpLeg 11.022260 12.086760 6.713757
LeftLeg -9.097734 -0.000000 0.000000
LeftFoot -15.846502 26.921435 -8.782827
LeftToeBase 22.864126 -0.000000 -0.000000
RightUpLeg 8.332038 -5.326202 3.996327
RightLeg -4.138126 -0.000000 0.000000
RightFoot -5.930364 -29.506814 4.605061
RightToeBase 13.900460 -0.000000 -0.000000
4171
root -5.418804 35.218857 -9.420466 -0.894017 -2.380128 -5.614008
Spine -3.624950 -1.831801 9.730156
Head 3.207594 6.066205 -6.865835
LeftShoulder -24.328348 16.414766 0.943900
LeftArm 27.083973 -55.070888 -32.703193
LeftForeArm 17.792271 -0.000000 6.610586
LeftHand -3.511184 -0.000000 -6.161009
LeftHandThumb1 -26.253704 0.000000 33.147579
RightShoulder -9.160279 11.234230 -18.578763
RightArm -0.743467 15.146386 16.358178
RightForeArm -36.088904 0.000000 15.374680
RightHand -2.172496 -0.000000 16.285921
RightHandThumb1 -24.326973 -0.000000 -32.862282
LeftUpLeg 11.030277 12.119853 6.710146
LeftLeg -9.097480 -0.000000 0.000000
LeftFoot -15.859404 26.923952 -8.772221
LeftToeBase 22.796686 -0.000000 -0.000000
RightUpLeg 8.320661 -5.277131 3.991465
RightLeg -4.127075 -0.000000 0.000000
RightFoot -5.936786 -29.508554 4.618479
RightToeBase 13.911028 -0.000000 -0.000000
4172
root -5.411295 35.219068 -9.416178 -0.856637 -2.437318 -5.624313
Spine -3.655803 -1.784161 9.772523
Head 3.190608 6.059348 -6.949244
LeftShoulder -24.443072 16.366086 1.036658
LeftArm 27.003046 -55.323445 -32.400675
LeftForeArm 17.994733 -0.000000 6.630970
LeftHand -3.540788 -0.000000 -5.845041
LeftHandThumb1 -26.253704 0.000000 33.147579
RightShoulder -9.234485 11.440857 -18.804270
RightArm -0.869856 15.125660 15.995085
RightForeArm -36.098583 -0.000000 15.571655
RightHand -2.391658 -0.000000 16.287871
RightHandThumb1 -24.326973 -0.000000 -32.862282
LeftUpLeg 11.006871 12.160828 6.701957
LeftLeg -9.080281 -0.000000 0.000000
LeftFoot -15.895276 26.937200 -8.787634
LeftToeBase 22.786795 -0.000000 -0.000000
RightUpLeg 8.274089 -5.205090 3.996550
RightLeg -4.102097 -0.000000 0.000000
RightFoot -5.950502 -29.524102 4.652917
RightToeBase 13.919658 -0.000000 -0.000000
4173
root -5.404753 35.218695 -9.406018 -0.848695 -2.471521 -5.619035
Spine -3.678187 -1.751152 9.769250
Head 3.192894 6.056090 -6.969640
LeftShoulder -24.514358 16.298545 1.176637
LeftArm 26.797235 -55.498160 -31.987053
LeftForeArm 18.117911 0.000000 6.697899
LeftHand -3.744405 0.000000 -5.638596
LeftHandThumb1 -26.253704 0.000000 33.147579
RightShoulder -9.315624 11.610854 -19.006953
RightArm -0.930641 15.352718 15.703166
RightForeArm -36.261140 -0.000000 15.622165
RightHand -2.580199 -0.000000 16.117557
RightHandThumb1 -24.326973 -0.000000 -32.862282
LeftUpLeg 11.022424 12.200179 6.682594
LeftLeg -9.089186 -0.000000 0.000000
LeftFoot -15.958043 26.963367 -8.916644
LeftToeBase 22.787680 -0.000000 -0.000000
RightUpLeg 8.284342 -5.191263 3.980132
RightLeg -4.113227 -0.000000 0.000000
RightFoot -5.945968 -29.518073 4.648513
RightToeBase 13.907304 -0.000000 -0.000000
